<svg xmlns="http://www.w3.org/2000/svg" width="109.361" height="145.864" viewBox="0 0 109.361 145.864">
  <g id="fingerprint" transform="translate(-64.108 0)">
    <g id="Group_342" data-name="Group 342" transform="translate(64.108 0.002)">
      <path id="Path_1995" data-name="Path 1995" d="M222.335,226.293a15.184,15.184,0,0,0-29.153,8.394c5.466,19,25.461,36.059,43.773,50.551a3.037,3.037,0,0,0,3.772-4.762c-17.577-13.908-36.739-30.192-41.708-47.465a9.116,9.116,0,0,1,17.523-5.035c3.316,11.54,19.806,25.8,35.494,38.215a3.037,3.037,0,0,0,3.772-4.762C247.523,254.887,225.585,237.529,222.335,226.293Z" transform="translate(-156.133 -154.474)" fill="#fff"/>
      <path id="Path_1996" data-name="Path 1996" d="M159.479,155.9a39.479,39.479,0,0,0-75.55,22.914l.013.045c4.987,17.322-5.7,22.126-9.11,23.183a3.037,3.037,0,0,0,1.822,5.794c9.287-2.9,18.306-12.67,13.125-30.66a33.4,33.4,0,0,1,22.851-41.347l.028-.008a33.593,33.593,0,0,1,41.179,22.4,2.872,2.872,0,0,0,.3.674c.316.522.966,1.622,20.486,17.462a3.037,3.037,0,1,0,3.832-4.713C171.365,165.889,161,157.331,159.479,155.9Z" transform="translate(-70.257 -91.914)" fill="#fff"/>
      <path id="Path_1997" data-name="Path 1997" d="M172.529,190.8a27.38,27.38,0,0,0-33.812-18.713,27.878,27.878,0,0,0-18.762,33.636c6.134,27.939,1.549,34.389-11.036,38.325a3.037,3.037,0,1,0,1.822,5.794c17.583-5.466,21.4-16.958,15.184-45.425a21.865,21.865,0,0,1,14.5-26.493,21.325,21.325,0,0,1,26.3,14.577c1.215,4.142,4.44,9.827,29.311,29.512a3.037,3.037,0,1,0,3.772-4.762C177.242,199.39,173.379,193.736,172.529,190.8Z" transform="translate(-94.64 -122.336)" fill="#fff"/>
      <path id="Path_1998" data-name="Path 1998" d="M272.444,294.22c-10.277-7.8-27.477-20.845-31.71-35.555a3.037,3.037,0,0,0-5.837,1.676c4.786,16.654,22.995,30.465,33.873,38.719a80.584,80.584,0,0,1,6.377,5.1,3.037,3.037,0,0,0,4.294-4.294A79.666,79.666,0,0,0,272.444,294.22Z" transform="translate(-186.198 -183.488)" fill="#fff"/>
      <path id="Path_1999" data-name="Path 1999" d="M240.722,437.3a19.837,19.837,0,0,0-15.148-10.289c-10.325,0-11.922,17.553-12.147,21.069a3.037,3.037,0,0,0,2.842,3.219h.194a3.037,3.037,0,0,0,3.037-2.848c.383-6.256,2.776-15.366,6.074-15.366,4.5,0,7.7,4.337,10.258,7.817a32.738,32.738,0,0,0,2.776,3.438,3.037,3.037,0,0,0,4.294-4.294A26.985,26.985,0,0,1,240.722,437.3Z" transform="translate(-170.911 -305.44)" fill="#fff"/>
      <path id="Path_2000" data-name="Path 2000" d="M167.451,365.4a3.037,3.037,0,0,0-5.788,1.822c2.6,8.121-2.509,24.058-10.191,26.554a3.037,3.037,0,0,0,1.814,5.8l.063-.021C165.034,395.784,170.67,375.486,167.451,365.4Z" transform="translate(-125.075 -259.937)" fill="#fff"/>
      <path id="Path_2001" data-name="Path 2001" d="M171.333,125.3c-3.8-1.215-6.778-6.074-10.234-11.619-7.313-11.819-17.34-28.006-45.364-28.006A51.687,51.687,0,0,0,64.109,137.3a3.037,3.037,0,0,0,6.074,0,45.6,45.6,0,0,1,45.552-45.552c24.641,0,33.271,13.933,40.208,25.133,4.081,6.59,7.6,12.281,13.52,14.2a3.037,3.037,0,1,0,1.939-5.756l-.063-.02Z" transform="translate(-64.109 -61.284)" fill="#fff"/>
      <path id="Path_2002" data-name="Path 2002" d="M70.182,314.192a3.037,3.037,0,0,0,2.715-4.4,26.914,26.914,0,0,1-2.715-7.75,3.037,3.037,0,1,0-6.074,0,31.046,31.046,0,0,0,3.359,10.471A3.038,3.038,0,0,0,70.182,314.192Z" transform="translate(-64.108 -213.882)" fill="#fff"/>
      <path id="Path_2003" data-name="Path 2003" d="M76.229,66.859A3.037,3.037,0,0,0,80.4,65.847l0-.008c2.636-4.349,15.621-16.757,39.916-16.757,23.347,0,39.958,11.825,42.953,16.757a3.037,3.037,0,1,0,5.193-3.152h0c-4.167-6.863-22.563-19.679-48.146-19.679-27.2,0-41.786,14.206-45.115,19.685A3.037,3.037,0,0,0,76.229,66.859Z" transform="translate(-71.735 -30.766)" fill="#fff"/>
      <path id="Path_2004" data-name="Path 2004" d="M132.049,11.982c1.391-.607,2.569-1.215,3.687-1.822,4.567-2.3,7.853-3.984,22.43-3.984A68.889,68.889,0,0,1,187.033,10.8c1.16.431,2.326.862,3.547,1.281a3.075,3.075,0,0,0,.99.17,3.037,3.037,0,0,0,.99-5.91c-1.178-.407-2.3-.82-3.413-1.215A74.887,74.887,0,0,0,158.166.1c-16.059,0-20.079,2.065-25.181,4.683-1.026.528-2.12,1.087-3.4,1.658a3.037,3.037,0,1,0,2.243,5.644q.12-.047.235-.105Z" transform="translate(-109.576 -0.007)" fill="#fff"/>
      <path id="Path_2005" data-name="Path 2005" d="M411.637,144.506a3.037,3.037,0,0,0,5.788-1.822,76.6,76.6,0,0,0-6.383-12.815,3.037,3.037,0,0,0-5.175,3.182A71.9,71.9,0,0,1,411.637,144.506Z" transform="translate(-308.245 -91.862)" fill="#fff"/>
    </g>
    <path id="Path_2006" data-name="Path 2006" d="M238.818,285.9a3.037,3.037,0,0,1-1.883-.656c-18.312-14.5-38.288-31.546-43.754-50.551a15.184,15.184,0,0,1,29.153-8.394c3.231,11.23,25.169,28.595,33.4,35.13a3.037,3.037,0,1,1-3.619,4.877c-.05-.037-.1-.076-.146-.116-15.688-12.414-32.19-26.669-35.5-38.215a9.113,9.113,0,0,0-17.516,5.035c4.968,17.273,24.13,33.557,41.7,47.465a3.037,3.037,0,0,1-1.889,5.418Z" transform="translate(-92.023 -154.476)" fill="#fff"/>
    <path id="Path_2007" data-name="Path 2007" d="M75.693,207.958a3.037,3.037,0,0,1-.9-5.934c3.4-1.063,14.085-5.867,9.11-23.183a39.479,39.479,0,0,1,27.027-48.853l.031-.009a39.716,39.716,0,0,1,48.5,25.922c1.512,1.421,11.88,9.985,18.974,15.743a3.037,3.037,0,0,1-3.826,4.713c-19.527-15.846-20.177-16.945-20.493-17.468a3.061,3.061,0,0,1-.3-.668,33.4,33.4,0,0,0-64.066,18.931l0,.006c5.175,17.984-3.839,27.756-13.131,30.66A3,3,0,0,1,75.693,207.958Z" transform="translate(-6.119 -91.909)" fill="#fff"/>
    <path id="Path_2008" data-name="Path 2008" d="M109.826,249.988a3.037,3.037,0,0,1-.9-5.934c12.585-3.936,17.164-10.4,11.03-38.325a27.884,27.884,0,0,1,18.762-33.636,27.4,27.4,0,0,1,33.818,18.713c.844,2.934,4.7,8.588,27.24,26.433a3.037,3.037,0,0,1-3.619,4.877c-.05-.037-.1-.076-.146-.116-24.9-19.691-28.127-25.382-29.311-29.512a21.3,21.3,0,0,0-26.311-14.577,21.865,21.865,0,0,0-14.5,26.524c6.25,28.473,2.429,39.934-15.184,45.425A2.984,2.984,0,0,1,109.826,249.988Z" transform="translate(-30.534 -122.345)" fill="#fff"/>
    <path id="Path_2009" data-name="Path 2009" d="M277.245,304.8a3.036,3.036,0,0,1-2.15-.887,81.1,81.1,0,0,0-6.377-5.108c-10.878-8.254-29.086-22.066-33.873-38.719a3.037,3.037,0,0,1,5.808-1.778c.01.034.02.068.029.1,4.251,14.71,21.428,27.756,31.7,35.555a80.317,80.317,0,0,1,7,5.654,3.037,3.037,0,0,1-2.144,5.181Z" transform="translate(-122.032 -183.231)" fill="#fff"/>
    <path id="Path_2010" data-name="Path 2010" d="M216.464,451.317h-.194a3.037,3.037,0,0,1-2.842-3.219c.219-3.517,1.822-21.069,12.147-21.069a19.86,19.86,0,0,1,15.184,10.295,26.09,26.09,0,0,0,2.174,2.745,3.037,3.037,0,0,1-4.294,4.294,31.826,31.826,0,0,1-2.776-3.432c-2.587-3.5-5.782-7.835-10.289-7.835-3.292,0-5.691,9.11-6.074,15.372A3.036,3.036,0,0,1,216.464,451.317Z" transform="translate(-106.803 -305.453)" fill="#fff"/>
    <path id="Path_2011" data-name="Path 2011" d="M152.465,399.037a3.037,3.037,0,0,1-.935-5.928c7.677-2.5,12.755-18.434,10.191-26.554a3.037,3.037,0,1,1,5.782-1.822c3.225,10.088-2.429,30.368-14.1,34.182A3.036,3.036,0,0,1,152.465,399.037Z" transform="translate(-61.025 -259.246)" fill="#fff"/>
    <path id="Path_2012" data-name="Path 2012" d="M67.146,140.338a3.037,3.037,0,0,1-3.037-3.037,51.686,51.686,0,0,1,51.626-51.626c28.024,0,38.051,16.186,45.37,28.005,3.456,5.57,6.438,10.386,10.234,11.619a3.037,3.037,0,0,1-1.814,5.8l-.063-.021c-5.916-1.919-9.438-7.61-13.52-14.2-6.936-11.194-15.567-25.127-40.208-25.127A45.6,45.6,0,0,0,70.183,137.3,3.037,3.037,0,0,1,67.146,140.338Z" transform="translate(-0.001 -61.283)" fill="#fff"/>
    <path id="Path_2013" data-name="Path 2013" d="M70.183,314.191a3.037,3.037,0,0,1-2.721-1.676,30.976,30.976,0,0,1-3.353-10.471,3.037,3.037,0,1,1,6.074,0,27,27,0,0,0,2.715,7.75,3.037,3.037,0,0,1-2.715,4.4Z" transform="translate(-0.001 -213.879)" fill="#fff"/>
    <path id="Path_2014" data-name="Path 2014" d="M165.735,67.3a3.037,3.037,0,0,1-2.6-1.464c-2.988-4.932-19.606-16.757-42.953-16.757-24.294,0-37.28,12.408-39.922,16.757a3.037,3.037,0,1,1-5.3-2.963c.036-.064.074-.127.115-.189,3.322-5.472,17.905-19.679,45.109-19.679,25.582,0,43.979,12.815,48.146,19.685a3.037,3.037,0,0,1-2.594,4.61Z" transform="translate(-7.486 -30.764)" fill="#fff"/>
    <path id="Path_2015" data-name="Path 2015" d="M191.907,12.244a3.033,3.033,0,0,1-.99-.164c-1.215-.419-2.393-.856-3.553-1.281A68.905,68.905,0,0,0,158.5,6.171c-14.577,0-17.862,1.682-22.4,4.009-1.117.577-2.3,1.178-3.687,1.822a3.042,3.042,0,0,1-2.46-5.564c1.281-.577,2.369-1.136,3.4-1.664C138.423,2.162,142.45.1,158.5.1a74.859,74.859,0,0,1,30.976,5c1.117.413,2.235.832,3.413,1.215a3.037,3.037,0,0,1-.984,5.928Z" transform="translate(-45.805)" fill="#fff"/>
    <path id="Path_2016" data-name="Path 2016" d="M414.549,146.559a3.037,3.037,0,0,1-2.891-2.114,72.069,72.069,0,0,0-5.77-11.479,3.037,3.037,0,1,1,5.175-3.182h0A76.687,76.687,0,0,1,417.44,142.6a3.037,3.037,0,0,1-2.891,3.96Z" transform="translate(-244.152 -91.8)" fill="#fff"/>
  </g>
</svg>
