<svg xmlns="http://www.w3.org/2000/svg" width="66" height="66" viewBox="0 0 66 66">
  <g id="Group_345" data-name="Group 345" transform="translate(-245 -368)">
    <g id="Rectangle_6" data-name="Rectangle 6" transform="translate(245 368)" fill="none" stroke="#fff" stroke-width="1">
      <rect width="66" height="66" rx="10" stroke="none"/>
      <rect x="0.5" y="0.5" width="65" height="65" rx="9.5" fill="none"/>
    </g>
    <path id="fi-rr-fingerprint" d="M7.189,26.826a1.2,1.2,0,0,1-.62-2.235c4.265-2.562,4.265-8.063,4.265-11.349a3.611,3.611,0,1,1,7.223,0,1.2,1.2,0,1,1-2.408,0,1.2,1.2,0,0,0-2.408,0c0,3.547,0,10.153-5.434,13.414a1.2,1.2,0,0,1-.619.171Zm5.974,1.711c2.747-2.769,4.352-6.662,4.768-11.581a1.2,1.2,0,0,0-1.1-1.306,1.183,1.183,0,0,0-1.3,1.1c-.374,4.4-1.708,7.7-4.078,10.089a1.2,1.2,0,0,0,1.708,1.7Zm6.26-.224a21.418,21.418,0,0,0,1.815-3.829,1.2,1.2,0,0,0-2.264-.816,19.085,19.085,0,0,1-1.611,3.4,1.2,1.2,0,0,0,2.06,1.25Zm2.847-7.619a37.869,37.869,0,0,0,.6-7.453A8.426,8.426,0,0,0,8.17,7.623,1.2,1.2,0,1,0,9.962,9.229a6.019,6.019,0,0,1,10.5,4.012,35.735,35.735,0,0,1-.556,6.993,1.2,1.2,0,0,0,.951,1.411,1.179,1.179,0,0,0,.232.023A1.2,1.2,0,0,0,22.27,20.694ZM8.426,13.241a6.019,6.019,0,0,1,.083-1,1.2,1.2,0,1,0-2.37-.4,8.392,8.392,0,0,0-.12,1.4c0,5.591-1.62,8.426-4.815,8.426a1.2,1.2,0,1,0,0,2.408C5.861,24.075,8.426,20.223,8.426,13.241ZM24.918,28.185a35.824,35.824,0,0,0,2.769-14.944,13.079,13.079,0,0,0-1.324-5.771A1.2,1.2,0,0,0,24.2,8.524a10.713,10.713,0,0,1,1.083,4.718,33.6,33.6,0,0,1-2.551,13.947,1.2,1.2,0,0,0,.6,1.594,1.184,1.184,0,0,0,.5.108,1.2,1.2,0,0,0,1.091-.705ZM3.611,16.853V13.241A10.846,10.846,0,0,1,14.445,2.408a10.727,10.727,0,0,1,6.5,2.167A1.2,1.2,0,0,0,22.39,2.648,13.121,13.121,0,0,0,14.445,0,13.257,13.257,0,0,0,1.2,13.241v3.611a1.2,1.2,0,1,0,2.408,0Z" transform="translate(264 387)" fill="#fff"/>
  </g>
</svg>
