<svg xmlns="http://www.w3.org/2000/svg" width="66" height="66" viewBox="0 0 66 66">
  <g id="Group_347" data-name="Group 347" transform="translate(-65 -385)">
    <g id="Rectangle_6" data-name="Rectangle 6" transform="translate(65 385)" fill="none" stroke="#fff" stroke-width="1">
      <rect width="66" height="66" rx="10" stroke="none"/>
      <rect x="0.5" y="0.5" width="65" height="65" rx="9.5" fill="none"/>
    </g>
    <path id="fi-rr-document" d="M20.125,16.917a1.208,1.208,0,0,1-1.208,1.208H9.25a1.208,1.208,0,0,1,0-2.417h9.667A1.208,1.208,0,0,1,20.125,16.917Zm-4.833,3.625H9.25a1.208,1.208,0,0,0,0,2.417h6.042a1.208,1.208,0,0,0,0-2.417Zm10.875-7.872V22.958A6.049,6.049,0,0,1,20.125,29H8.042A6.049,6.049,0,0,1,2,22.958V6.042A6.049,6.049,0,0,1,8.042,0H13.5a8.408,8.408,0,0,1,5.981,2.477l4.21,4.212a8.4,8.4,0,0,1,2.478,5.98Zm-8.4-8.484a6.054,6.054,0,0,0-1.27-.942V8.458a1.208,1.208,0,0,0,1.208,1.208h5.215A6.021,6.021,0,0,0,21.98,8.4Zm5.98,8.484c0-.2-.039-.39-.057-.586H17.708a3.625,3.625,0,0,1-3.625-3.625V2.473c-.2-.018-.388-.057-.586-.057H8.042A3.625,3.625,0,0,0,4.417,6.042V22.958a3.625,3.625,0,0,0,3.625,3.625H20.125a3.625,3.625,0,0,0,3.625-3.625Z" transform="translate(84 404)" fill="#fff"/>
  </g>
</svg>
