<svg xmlns="http://www.w3.org/2000/svg" width="66" height="66" viewBox="0 0 66 66">
  <g id="Group_346" data-name="Group 346" transform="translate(-245 -554)">
    <g id="Rectangle_6" data-name="Rectangle 6" transform="translate(245 554)" fill="none" stroke="#fff" stroke-width="1">
      <rect width="66" height="66" rx="10" stroke="none"/>
      <rect x="0.5" y="0.5" width="65" height="65" rx="9.5" fill="none"/>
    </g>
    <g id="fi-rr-checkbox" transform="translate(264 573)">
      <path id="Path_754" data-name="Path 754" d="M22.958,0H6.042A6.049,6.049,0,0,0,0,6.042V22.958A6.049,6.049,0,0,0,6.042,29H22.958A6.049,6.049,0,0,0,29,22.958V6.042A6.049,6.049,0,0,0,22.958,0Zm3.625,22.958a3.625,3.625,0,0,1-3.625,3.625H6.042a3.625,3.625,0,0,1-3.625-3.625V6.042A3.625,3.625,0,0,1,6.042,2.417H22.958a3.625,3.625,0,0,1,3.625,3.625Z" fill="#fff"/>
      <path id="Path_755" data-name="Path 755" d="M10.505,17.907,5.77,13.172a1.208,1.208,0,0,0-1.709,0h0a1.208,1.208,0,0,0,0,1.709L8.8,19.616a2.417,2.417,0,0,0,3.418,0L23.394,8.437a1.208,1.208,0,0,0,0-1.709h0a1.208,1.208,0,0,0-1.709,0Z" transform="translate(0.772 1.328)" fill="#fff"/>
    </g>
  </g>
</svg>
