<svg xmlns="http://www.w3.org/2000/svg" width="21" height="21" viewBox="0 0 21 21">
  <g id="Group_4672" data-name="Group 4672" transform="translate(-40 -251)">
    <rect id="Boundary" width="21" height="21" transform="translate(40 251)" fill="none"/>
    <g id="gender" transform="translate(10.026 254)">
      <g id="Group_4493" data-name="Group 4493" transform="translate(33.974 0)">
        <path id="Path_8840" data-name="Path 8840" d="M47.048.586A.59.59,0,0,0,46.459,0H44.588a.589.589,0,0,0,0,1.178h.45L43.023,3.192a3.768,3.768,0,0,0-5.81,1.91,3.77,3.77,0,0,0-.058,7.457v.627h-.122a.589.589,0,1,0,0,1.178h.122v.122a.589.589,0,0,0,1.178,0v-.122h.122a.589.589,0,0,0,0-1.178h-.122v-.627a3.782,3.782,0,0,0,3.005-2.585,3.768,3.768,0,0,0,2.518-5.948L45.87,2.01v.45a.589.589,0,1,0,1.178,0V.586Zm-9.3,10.841a2.593,2.593,0,0,1-.705-5.087,3.777,3.777,0,0,0,3.049,3.6A2.6,2.6,0,0,1,37.744,11.427Zm.472-5.142a2.6,2.6,0,0,1,2.12,2.5A2.6,2.6,0,0,1,38.216,6.285Zm3.3,2.45a3.777,3.777,0,0,0-3.049-3.6,2.592,2.592,0,1,1,3.049,3.6Z" transform="translate(-33.974 0)" fill="#22c7b8"/>
      </g>
    </g>
  </g>
</svg>
