<svg xmlns="http://www.w3.org/2000/svg" width="33" height="34" viewBox="0 0 33 34">
  <g id="Group_4495" data-name="Group 4495" transform="translate(-37 -603)">
    <rect id="Rectangle_98" data-name="Rectangle 98" width="33" height="34" rx="4" transform="translate(37 603)" fill="#22c7b8" opacity="0.16"/>
    <path id="fi-rr-heart" d="M10.464,1.917A3.827,3.827,0,0,0,7.174,3.89,3.827,3.827,0,0,0,3.885,1.917,4.067,4.067,0,0,0,0,6.133c0,2.719,2.862,5.689,5.263,7.7a2.975,2.975,0,0,0,3.827,0c2.4-2.014,5.263-4.983,5.263-7.7a4.067,4.067,0,0,0-3.887-4.216Zm-2.144,11a1.778,1.778,0,0,1-2.29,0C2.956,10.343,1.194,7.869,1.194,6.133a2.871,2.871,0,0,1,2.691-3.02,2.871,2.871,0,0,1,2.691,3.02.6.6,0,1,0,1.2,0,2.871,2.871,0,0,1,2.691-3.02,2.871,2.871,0,0,1,2.691,3.02c0,1.736-1.762,4.21-4.835,6.785Z" transform="translate(46.005 612.083)" fill="#22c7b8"/>
  </g>
</svg>
