<svg id="Group_4664" data-name="Group 4664" xmlns="http://www.w3.org/2000/svg" width="21" height="21" viewBox="0 0 21 21">
  <rect id="Boundary" width="21" height="21" fill="none"/>
  <g id="fi-rr-user" transform="translate(5.28 2.64)">
    <path id="Path_997" data-name="Path 997" d="M9.769,7.537A3.769,3.769,0,1,0,6,3.769,3.769,3.769,0,0,0,9.769,7.537Zm0-6.281A2.512,2.512,0,1,1,7.256,3.769,2.512,2.512,0,0,1,9.769,1.256Z" transform="translate(-4.116)" fill="#22c7b8"/>
    <path id="Path_998" data-name="Path 998" d="M8.653,14A5.659,5.659,0,0,0,3,19.653a.628.628,0,1,0,1.256,0,4.4,4.4,0,0,1,8.793,0,.628.628,0,0,0,1.256,0A5.659,5.659,0,0,0,8.653,14Z" transform="translate(-3 -5.207)" fill="#22c7b8"/>
  </g>
</svg>
