<svg xmlns="http://www.w3.org/2000/svg" width="66" height="66" viewBox="0 0 66 66">
  <g id="Group_349" data-name="Group 349" transform="translate(-245 -176)">
    <g id="Rectangle_6" data-name="Rectangle 6" transform="translate(245 176)" fill="none" stroke="#fff" stroke-width="1">
      <rect width="66" height="66" rx="10" stroke="none"/>
      <rect x="0.5" y="0.5" width="65" height="65" rx="9.5" fill="none"/>
    </g>
    <path id="fi-rr-users" d="M9.063,15.708A5.438,5.438,0,1,1,14.5,10.271a5.438,5.438,0,0,1-5.437,5.438Zm0-8.458a3.021,3.021,0,1,0,3.021,3.021A3.021,3.021,0,0,0,9.063,7.25Zm9.063,20.542v-.6A9.063,9.063,0,0,0,0,27.188v.6a1.208,1.208,0,0,0,2.417,0v-.6a6.646,6.646,0,0,1,13.292,0v.6a1.208,1.208,0,0,0,2.417,0ZM29,21.75a8.458,8.458,0,0,0-14.1-6.3,1.208,1.208,0,1,0,1.612,1.8,6.042,6.042,0,0,1,10.069,4.5,1.208,1.208,0,0,0,2.417,0ZM21.146,10.875a5.438,5.438,0,1,1,5.438-5.437,5.438,5.438,0,0,1-5.437,5.438Zm0-8.458a3.021,3.021,0,1,0,3.021,3.021A3.021,3.021,0,0,0,21.146,2.417Z" transform="translate(264 195)" fill="#fff"/>
  </g>
</svg>
