<svg xmlns="http://www.w3.org/2000/svg" width="21" height="21" viewBox="0 0 21 21">
  <g id="Group_4708" data-name="Group 4708" transform="translate(-40 -591)">
    <rect id="Boundary" width="21" height="21" transform="translate(40 591)" fill="none"/>
    <path id="fi-rr-envelope" d="M13.019,1H3.426A3.43,3.43,0,0,0,0,4.426v8.223a3.43,3.43,0,0,0,3.426,3.426h9.593a3.43,3.43,0,0,0,3.426-3.426V4.426A3.43,3.43,0,0,0,13.019,1ZM3.426,2.37h9.593a2.056,2.056,0,0,1,1.9,1.293L9.677,8.912a2.06,2.06,0,0,1-2.908,0L1.521,3.663a2.056,2.056,0,0,1,1.9-1.293ZM13.019,14.7H3.426A2.056,2.056,0,0,1,1.37,12.649V5.454L5.8,9.88a3.431,3.431,0,0,0,4.846,0l4.429-4.427v7.195A2.056,2.056,0,0,1,13.019,14.7Z" transform="translate(42 593)" fill="#22c7b8"/>
  </g>
</svg>
