<svg xmlns="http://www.w3.org/2000/svg" width="33" height="33" viewBox="0 0 33 33">
  <g id="Group_4497" data-name="Group 4497" transform="translate(-37 -710)">
    <rect id="Rectangle_98" data-name="Rectangle 98" width="33" height="33" rx="4" transform="translate(37 710)" fill="#22c7b8" opacity="0.16"/>
    <g id="phone-call2" transform="translate(46 719)">
      <g id="Group_128" data-name="Group 128" transform="translate(0 0)">
        <path id="Path_1168" data-name="Path 1168" d="M14.762,10.742,12.719,8.7a1.359,1.359,0,0,0-2.261.511,1.39,1.39,0,0,1-1.6.875A6.3,6.3,0,0,1,5.06,6.292a1.322,1.322,0,0,1,.875-1.6,1.359,1.359,0,0,0,.511-2.261L4.4.383a1.457,1.457,0,0,0-1.97,0L1.048,1.769c-1.386,1.459.146,5.325,3.575,8.754s7.295,5.034,8.754,3.575l1.386-1.386A1.457,1.457,0,0,0,14.762,10.742Z" transform="translate(-0.539 0)" fill="none" stroke="#22c7b8" stroke-width="1"/>
      </g>
    </g>
  </g>
</svg>
