<svg xmlns="http://www.w3.org/2000/svg" width="33" height="33" viewBox="0 0 33 33">
  <g id="Group_4492" data-name="Group 4492" transform="translate(-37 -443)">
    <rect id="Rectangle_98" data-name="Rectangle 98" width="33" height="33" rx="4" transform="translate(37 443)" fill="#22c7b8" opacity="0.16"/>
    <g id="fi-rr-calendar" transform="translate(45 451)">
      <path id="Path_751" data-name="Path 751" d="M12.822,1.35h-.675V.675a.675.675,0,0,0-1.35,0V1.35H5.4V.675a.675.675,0,0,0-1.35,0V1.35H3.374A3.378,3.378,0,0,0,0,4.724v8.1A3.378,3.378,0,0,0,3.374,16.2h9.448A3.378,3.378,0,0,0,16.2,12.822v-8.1A3.378,3.378,0,0,0,12.822,1.35ZM1.35,4.724A2.025,2.025,0,0,1,3.374,2.7h9.448a2.025,2.025,0,0,1,2.025,2.025V5.4H1.35ZM12.822,14.847H3.374A2.025,2.025,0,0,1,1.35,12.822V6.749h13.5v6.074A2.025,2.025,0,0,1,12.822,14.847Z" fill="#22c7b8"/>
      <circle id="Ellipse_504" data-name="Ellipse 504" cx="1.012" cy="1.012" r="1.012" transform="translate(7.086 9.111)" fill="#22c7b8"/>
      <circle id="Ellipse_505" data-name="Ellipse 505" cx="1.012" cy="1.012" r="1.012" transform="translate(3.712 9.111)" fill="#22c7b8"/>
      <circle id="Ellipse_506" data-name="Ellipse 506" cx="1.012" cy="1.012" r="1.012" transform="translate(10.46 9.111)" fill="#22c7b8"/>
    </g>
  </g>
</svg>
