<svg xmlns="http://www.w3.org/2000/svg" width="21" height="21" viewBox="0 0 21 21">
  <g id="Group_4710" data-name="Group 4710" transform="translate(-40 -455)">
    <rect id="Boundary" width="21" height="21" transform="translate(40 455)" fill="none"/>
    <path id="fi-rr-heart" d="M12.2,1.917a4.464,4.464,0,0,0-3.836,2.3,4.464,4.464,0,0,0-3.836-2.3A4.743,4.743,0,0,0,0,6.834c0,3.172,3.338,6.635,6.138,8.984a3.469,3.469,0,0,0,4.464,0c2.8-2.348,6.138-5.812,6.138-8.984A4.743,4.743,0,0,0,12.2,1.917ZM9.7,14.751a2.074,2.074,0,0,1-2.671,0C3.449,11.744,1.393,8.859,1.393,6.834A3.348,3.348,0,0,1,4.532,3.312,3.348,3.348,0,0,1,7.671,6.834a.7.7,0,1,0,1.395,0A3.348,3.348,0,0,1,12.2,3.312a3.348,3.348,0,0,1,3.139,3.522c0,2.025-2.056,4.91-5.639,7.914Z" transform="translate(42.005 456.083)" fill="#22c7b8"/>
  </g>
</svg>
