<svg xmlns="http://www.w3.org/2000/svg" width="33" height="33" viewBox="0 0 33 33">
  <g id="Group_4504" data-name="Group 4504" transform="translate(-37 -336)">
    <rect id="Rectangle_98" data-name="Rectangle 98" width="33" height="33" rx="4" transform="translate(37 336)" fill="#22c7b8" opacity="0.16"/>
    <g id="first-aid-kit" transform="translate(43 316.816)">
      <g id="Group_4488" data-name="Group 4488" transform="translate(6.25 32.305)">
        <g id="Group_4487" data-name="Group 4487">
          <path id="Path_8838" data-name="Path 8838" d="M122.49,140.655h-1.783v-1.783a.651.651,0,0,0-.647-.656h-2.574a.651.651,0,0,0-.651.651v1.783h-1.779a.651.651,0,0,0-.656.647v2.574a.651.651,0,0,0,.651.651h1.783V146.3a.651.651,0,0,0,.647.656h2.57a.651.651,0,0,0,.651-.651h0v-1.783h1.783a.651.651,0,0,0,.656-.647v-2.57A.651.651,0,0,0,122.49,140.655Zm-.223,2.994h-2a.437.437,0,0,0-.437.437v2h-2.124v-2a.437.437,0,0,0-.437-.437h-2v-2.12h2a.437.437,0,0,0,.437-.437v-2h2.12v2a.437.437,0,0,0,.437.437h2Z" transform="translate(-114.4 -138.216)" fill="#22c7b8"/>
        </g>
      </g>
      <g id="Group_4490" data-name="Group 4490" transform="translate(0 26.184)">
        <g id="Group_4489" data-name="Group 4489" transform="translate(0 0)">
          <path id="Path_8839" data-name="Path 8839" d="M18.225,29.035h-3.6V27.5a1.272,1.272,0,0,0-1.23-1.312q-.054,0-.107,0H7.955a1.272,1.272,0,0,0-1.336,1.2q0,.054,0,.107v1.53h-3.6A2.835,2.835,0,0,0,0,32.042v9.506a2.835,2.835,0,0,0,3.016,3.016h15.21a2.835,2.835,0,0,0,3.016-3.016v-9.5A2.832,2.832,0,0,0,18.225,29.035ZM7.491,27.5a.41.41,0,0,1,.468-.468h5.328c.468,0,.468.337.468.468v1.53H7.491ZM20.367,41.548a1.964,1.964,0,0,1-2.142,2.142H3.016A1.965,1.965,0,0,1,.874,41.548v-9.5a1.964,1.964,0,0,1,2.142-2.142h15.21a1.965,1.965,0,0,1,2.142,2.142Z" transform="translate(0 -26.184)" fill="#22c7b8"/>
        </g>
      </g>
    </g>
  </g>
</svg>
