<svg xmlns="http://www.w3.org/2000/svg" width="21" height="21" viewBox="0 0 21 21">
  <g id="Group_4673" data-name="Group 4673" transform="translate(-40 -659)">
    <rect id="Boundary" width="21" height="21" transform="translate(40 659)" fill="none"/>
    <g id="fi-rr-marker" transform="translate(42.055 662.002)">
      <path id="Path_869" data-name="Path 869" d="M10.512,6a2.512,2.512,0,1,0,2.512,2.512A2.512,2.512,0,0,0,10.512,6Zm0,3.768a1.256,1.256,0,1,1,1.256-1.256A1.256,1.256,0,0,1,10.512,9.768Z" transform="translate(-2.252 -2.232)" fill="#22c7b8"/>
      <path id="Path_870" data-name="Path 870" d="M8.26,15.073a3.311,3.311,0,0,1-2.708-1.382c-2.394-3.3-3.608-5.784-3.608-7.378a6.315,6.315,0,1,1,12.63,0c0,1.594-1.214,4.076-3.608,7.378A3.311,3.311,0,0,1,8.26,15.073Zm0-13.7A4.951,4.951,0,0,0,3.315,6.314c0,1.262,1.189,3.6,3.347,6.573a1.975,1.975,0,0,0,3.2,0c2.158-2.976,3.347-5.311,3.347-6.573A4.951,4.951,0,0,0,8.26,1.369Z" transform="translate(0 0)" fill="#22c7b8"/>
    </g>
  </g>
</svg>
