<svg xmlns="http://www.w3.org/2000/svg" width="19" height="19" viewBox="0 0 19 19">
  <g id="Group_4535" data-name="Group 4535" transform="translate(-324 -409)">
    <rect id="Rectangle_13" data-name="Rectangle 13" width="19" height="19" rx="9.5" transform="translate(324 409)" fill="#ef7416"/>
    <path id="fi-rr-cross-small" d="M15.668,5.944h0a.81.81,0,0,0-1.146,0L10.806,9.661,7.09,5.944a.81.81,0,0,0-1.146,0h0a.81.81,0,0,0,0,1.146l3.716,3.716L5.944,14.522a.81.81,0,0,0,0,1.146h0a.81.81,0,0,0,1.146,0l3.716-3.716,3.716,3.716a.81.81,0,0,0,1.146,0h0a.81.81,0,0,0,0-1.146l-3.716-3.716L15.668,7.09A.81.81,0,0,0,15.668,5.944Z" transform="translate(322.694 407.694)" fill="#fff"/>
  </g>
</svg>
