<svg xmlns="http://www.w3.org/2000/svg" width="33" height="34" viewBox="0 0 33 34">
  <g id="Group_4494" data-name="Group 4494" transform="translate(-37 -389)">
    <rect id="Rectangle_98" data-name="Rectangle 98" width="33" height="34" rx="4" transform="translate(37 389)" fill="#22c7b8" opacity="0.16"/>
    <g id="gender" transform="translate(11.026 396)">
      <g id="Group_4493" data-name="Group 4493" transform="translate(33.974 0)">
        <path id="Path_8840" data-name="Path 8840" d="M50.966.762A.766.766,0,0,0,50.2,0H47.769a.765.765,0,0,0,0,1.531h.584L45.735,4.149a4.9,4.9,0,0,0-7.551,2.482,4.9,4.9,0,0,0-.076,9.691v.816H37.95a.765.765,0,0,0,0,1.531h.159v.159a.765.765,0,1,0,1.531,0v-.159H39.8a.765.765,0,0,0,0-1.531h-.159v-.816a4.915,4.915,0,0,0,3.906-3.36,4.9,4.9,0,0,0,3.272-7.731l2.618-2.618V3.2a.765.765,0,1,0,1.531,0V.765S50.966.763,50.966.762ZM38.874,14.851a3.37,3.37,0,0,1-.917-6.612,4.909,4.909,0,0,0,3.963,4.681A3.374,3.374,0,0,1,38.874,14.851Zm.613-6.683a3.375,3.375,0,0,1,2.756,3.255A3.375,3.375,0,0,1,39.487,8.169Zm4.285,3.185a4.909,4.909,0,0,0-3.963-4.681,3.369,3.369,0,1,1,3.963,4.681Z" transform="translate(-33.974 0)" fill="#22c7b8"/>
      </g>
    </g>
  </g>
</svg>
