<svg xmlns="http://www.w3.org/2000/svg" width="33" height="34" viewBox="0 0 33 34">
  <g id="Group_4491" data-name="Group 4491" transform="translate(-37 -496)">
    <rect id="Rectangle_98" data-name="Rectangle 98" width="33" height="34" rx="4" transform="translate(37 496)" fill="#22c7b8" opacity="0.16"/>
    <g id="fi-rr-marker" transform="translate(44.055 504.002)">
      <path id="Path_869" data-name="Path 869" d="M10.985,6A2.985,2.985,0,1,0,13.97,8.985,2.985,2.985,0,0,0,10.985,6Zm0,4.477a1.492,1.492,0,1,1,1.492-1.492A1.492,1.492,0,0,1,10.985,10.477Z" transform="translate(-1.537 -1.523)" fill="#22c7b8"/>
      <path id="Path_870" data-name="Path 870" d="M9.448,17.909a3.933,3.933,0,0,1-3.217-1.642C3.387,12.344,1.945,9.4,1.945,7.5a7.5,7.5,0,1,1,15.007,0c0,1.894-1.442,4.843-4.286,8.766a3.933,3.933,0,0,1-3.217,1.642Zm0-16.282A5.883,5.883,0,0,0,3.573,7.5c0,1.5,1.413,4.274,3.977,7.81a2.347,2.347,0,0,0,3.8,0C13.911,11.776,15.324,9,15.324,7.5A5.883,5.883,0,0,0,9.448,1.627Z" fill="#22c7b8"/>
    </g>
  </g>
</svg>
