<svg xmlns="http://www.w3.org/2000/svg" width="21" height="21" viewBox="0 0 21 21">
  <g id="Group_4671" data-name="Group 4671" transform="translate(-40 -259)">
    <rect id="Boundary" width="21" height="21" transform="translate(40 259)" fill="none"/>
    <g id="first-aid-kit" transform="translate(41 235.815)">
      <g id="Group_4488" data-name="Group 4488" transform="translate(5.344 31.417)">
        <g id="Group_4487" data-name="Group 4487">
          <path id="Path_8838" data-name="Path 8838" d="M121.317,140.3h-1.525v-1.525a.557.557,0,0,0-.553-.561h-2.2a.557.557,0,0,0-.557.557V140.3h-1.521a.557.557,0,0,0-.561.553v2.2a.557.557,0,0,0,.557.557h1.525v1.521a.557.557,0,0,0,.553.561h2.2a.557.557,0,0,0,.557-.557h0v-1.525h1.525a.557.557,0,0,0,.561-.553v-2.2A.557.557,0,0,0,121.317,140.3Zm-.191,2.56h-1.708a.374.374,0,0,0-.374.374v1.708h-1.816v-1.708a.374.374,0,0,0-.374-.374h-1.708v-1.812h1.708a.374.374,0,0,0,.374-.374v-1.711h1.812v1.708a.374.374,0,0,0,.374.374h1.711Z" transform="translate(-114.4 -138.216)" fill="#22c7b8"/>
        </g>
      </g>
      <g id="Group_4490" data-name="Group 4490" transform="translate(0 26.184)">
        <g id="Group_4489" data-name="Group 4489" transform="translate(0 0)">
          <path id="Path_8839" data-name="Path 8839" d="M15.582,28.622H12.5V27.306a1.087,1.087,0,0,0-1.052-1.122q-.046,0-.092,0H6.8a1.087,1.087,0,0,0-1.143,1.029q0,.046,0,.092v1.308H2.578A2.423,2.423,0,0,0,0,31.193V39.32A2.423,2.423,0,0,0,2.578,41.9h13a2.423,2.423,0,0,0,2.578-2.578V31.2A2.422,2.422,0,0,0,15.582,28.622ZM6.4,27.306a.35.35,0,0,1,.4-.4H11.36c.4,0,.4.288.4.4v1.308H6.4ZM17.413,39.32a1.679,1.679,0,0,1-1.831,1.831h-13A1.68,1.68,0,0,1,.747,39.32V31.2a1.679,1.679,0,0,1,1.831-1.831h13A1.68,1.68,0,0,1,17.413,31.2Z" transform="translate(0 -26.184)" fill="#22c7b8"/>
        </g>
      </g>
    </g>
  </g>
</svg>
